<?xml version="1.0" standalone="no"?>
<!DOCTYPE svg PUBLIC "-//W3C//DTD SVG 20010904//EN"
 "http://www.w3.org/TR/2001/REC-SVG-20010904/DTD/svg10.dtd">
<svg version="1.0" xmlns="http://www.w3.org/2000/svg"
 width="512.000000pt" height="512.000000pt" viewBox="0 0 512.000000 512.000000"
 preserveAspectRatio="xMidYMid meet">
<metadata>
Created by potrace 1.11, written by Peter Selinger 2001-2013
</metadata>
<g transform="translate(0.000000,512.000000) scale(0.100000,-0.100000)"
fill="#000000" stroke="none">
<path d="M260 4745 l0 -375 375 0 375 0 0 375 0 375 -375 0 -375 0 0 -375z"/>
<path d="M1450 2895 l0 -1105 370 0 370 0 0 -360 0 -360 745 0 745 0 0 365 0
365 -740 0 -740 0 0 735 0 735 738 2 737 3 3 363 2 362 -1115 0 -1115 0 0
-1105z"/>
</g>
</svg>
